# xmcd
#
# Track frame offsets:
#	150
#	20100
#	40425
#	57225
#	78825
#	101325
#	116100
#	127800
#	144000
#	158850
#	177600
#	197550
#	217875
#	234675
#	256275
#	278775
#	293550
#	305250
#
# Disc length: 4286 seconds
#
# Revision: 0
# Processed by: cddbd v1.5.2PL0 Copyright (c) Steve Scherf et al.
# Submitted via: audiograbber 1.83.01
#
DISCID=f810bc12
DTITLE=Country Hits Monthly 0002 - CHM 0002
DYEAR=2000
DGENRE=KARAOKE
TTITLE0=Tim McGraw - My Best Friend
TTITLE1=Tracy Byrd - Put Your Hand in Mind
TTITLE2=Mark Willis - Back at One
TTITLE3=Dixie Chicks - Cowboy Take Me Away
TTITLE4=Martina McBride - Love's The Only House
TTITLE5=Toby Keith - How Do You Like Me Now
TTITLE6=Brooks and Dunn - Beer Thirty
TTITLE7=Keith Urban - It's a Love Thing
TTITLE8=Joe Diffie - The Quittin Kind
TTITLE9=Faith Hill and Tim McGraw - Let's Make Love
TTITLE10=Tim McGraw - My Best Friend (Vocal)
TTITLE11=Tracy Byrd - Put Your Hand in Mind (Vocal)
TTITLE12=Mark Willis - Back at One (Vocal)
TTITLE13=Dixie Chicks - Cowboy Take Me Away (Vocal)
TTITLE14=Martina McBride - Love's The Only House (Vocal)
TTITLE15=Toby Keith - How Do You Like Me Now (Vocal)
TTITLE16=Brooks and Dunn - Beer Thirty (Vocal)
TTITLE17=Keith Urban - It's a Love Thing (Vocal)
EXTD=
EXTT0=
EXTT1=
EXTT2=
EXTT3=
EXTT4=
EXTT5=
EXTT6=
EXTT7=
EXTT8=
EXTT9=
EXTT10=
EXTT11=
EXTT12=
EXTT13=
EXTT14=
EXTT15=
EXTT16=
EXTT17=
PLAYORDER=
